<?xml version="1.0" encoding="utf-8"?>
<!-- Generator: Adobe Illustrator 16.0.0, SVG Export Plug-In . SVG Version: 6.00 Build 0)  -->
<!DOCTYPE svg PUBLIC "-//W3C//DTD SVG 1.1//EN" "http://www.w3.org/Graphics/SVG/1.1/DTD/svg11.dtd">
<svg version="1.1" id="Layer_1" xmlns="http://www.w3.org/2000/svg" xmlns:xlink="http://www.w3.org/1999/xlink" x="0px" y="0px"
	 width="1500px" height="1000px" viewBox="0 0 1500 1000" enable-background="new 0 0 1500 1000" xml:space="preserve">
<g>
	<path fill="#FFFFFF" d="M1041.037,162.976H577.163l38.927-95.069c8.217-20.162,2.169-43.424-14.892-57.074
		C584.136-2.89,560.099-3.591,542.107,8.817L228.051,227.031c-13.803,9.538-21.713,25.431-21.246,42.185
		c0.462,16.667,9.458,32.024,23.728,40.709l328.479,199.368c18.609,11.324,42.497,9.148,58.778-5.504
		c16.205-14.656,20.938-38.383,11.554-58.236l-43.189-91.274h454.883c33.494,0,60.795,27.839,60.795,61.418v332.667
		c0,33.58-27.299,60.41-60.795,60.41H537.61c-44.821,0-81.265,36.291-81.265,81.266v28.695c0,44.975,36.444,81.266,81.265,81.266
		h503.429c139.033,0,252.174-112.596,252.174-251.637V415.699C1293.213,276.659,1180.07,162.976,1041.037,162.976z"/>
</g>
</svg>
